# xmcd CD database file
#
# Track frame offsets:
#	150
#	11145
#	26764
#	39259
#	50590
#	64074
#	77605
#	90774
#	102880
#	113855
#	127395
#	141784
#	156819
#	166522
#	178010
#	196942
#	207755
#	221153
#	242626
#	256259
#	265864
#	279784
#	293334
#
# Disc length: 4094 seconds
#
# Revision: 0
# Processed by: cddbd v1.5.2PL0 Copyright (c) Steve Scherf et al.
# Submitted via: CDex 1.70beta2
#
DISCID=370ffc17
DTITLE=Waylon Jennings - The Essential 2
DYEAR=2011
DGENRE=Country
TTITLE0=This Time
TTITLE1=It's Not Supposed To Be That Way
TTITLE2=I'm A Ramblin' Man
TTITLE3=Rainy Day Woman
TTITLE4=Amanda
TTITLE5=Bob Wills Is Still The King
TTITLE6=Are You Sure Hank Done It This Way
TTITLE7=Waymore's Blues
TTITLE8=Dreaming My Dreams With You
TTITLE9=Waylong Jennings and Willie Nelson - Good Hearted Woman
TTITLE10=Are You Ready For The Country
TTITLE11=Luckenbach, Texas (Back To The Basics Of Love)
TTITLE12=The Wurlitzer Prize (I Don't Want To Get Over You)
TTITLE13=Waylong Jennings and Willie Nelson - Mamas Don't Let Your Babies Grow Up To Be Cowboys
TTITLE14=I've Always Been Crazy
TTITLE15=A Long Time Ago
TTITLE16=Don't You Think This Outlaw Bit's Done Got Out Of Hand
TTITLE17=I Ain't Living Long Like This
TTITLE18=Come With Me
TTITLE19=Good Ol' Boys
TTITLE20=Waylon Jennings and Jessi Colter - Storms Never Last
TTITLE21=Drinkin' and Dreamin'
TTITLE22=Highwaymen - Highwayman
EXTD=YEAR: 2011
EXTT0=
EXTT1=
EXTT2=
EXTT3=
EXTT4=
EXTT5=
EXTT6=
EXTT7=
EXTT8=
EXTT9=
EXTT10=
EXTT11=
EXTT12=
EXTT13=
EXTT14=
EXTT15=
EXTT16=
EXTT17=
EXTT18=
EXTT19=
EXTT20=
EXTT21=
EXTT22=
PLAYORDER=
